<?xml version="1.0" encoding="utf-8"?>
<!-- Generator: Adobe Illustrator 25.2.1, SVG Export Plug-In . SVG Version: 6.00 Build 0)  -->
<svg version="1.1" id="レイヤー_1" xmlns="http://www.w3.org/2000/svg" xmlns:xlink="http://www.w3.org/1999/xlink" x="0px"
	 y="0px" viewBox="0 0 1366 768" style="enable-background:new 0 0 1366 768;" xml:space="preserve">
<style type="text/css">
	.st0{fill:#42210B;}
	.st1{fill:#DFC200;}
</style>
<g>
	<g>
		<g>
			<path class="st0" d="M603.42,344.89c-7.06,0.83-11.42,3.94-13.7,7.06c-0.42,0.83-1.04,1.04-1.66,1.04
				c-1.45,0-26.16-12.87-40.27-35.7h-30.1c-5.19,7.68-11.42,14.74-18.47,21.17c11.21,3.53,16.6,7.26,16.6,12.87
				c0,3.94-2.08,8.09-4.57,8.09c-1.66,0-2.49-0.83-3.74-4.36c-1.87-5.39-5.19-9.75-10.79-14.53c-6.23,5.19-13.08,9.96-20.55,14.73
				v31.76c0,8.09-2.49,10.59-13.08,15.99c-0.42,0.2-0.83,0.41-1.04,0.41c-0.83,0-1.45-0.83-1.66-2.07
				c-1.45-5.81-5.6-8.3-19.72-12.25l0.42-2.91c9.55,1.45,15.57,2.29,19.51,2.29c5.81,0,6.43-1.87,6.43-5.61v-44.84h-27.61
				c-1.04,29.27-6.85,44.21-26.78,69.74l-2.28-1.87c21.17-37.36,21.17-41.72,21.17-150.49l11.42,8.51h21.59l6.02-7.89l8.93,8.09
				c1.24,1.04,1.66,1.87,1.66,2.49c0,1.04-0.42,1.25-4.98,3.94v80.75c12.87-9.55,23.87-20.55,32.59-34.04h-10.38
				c-4.36,0-10.59,0.83-13.91,2.07l-5.81-7.47c4.98,0.42,10.38,0.83,15.15,0.83h17.85c3.32-5.81,6.23-11.83,8.72-18.47h-15.78
				c-4.15,0-10.17,0.83-13.28,2.08l-5.6-7.48c4.77,0.42,9.96,0.83,14.53,0.83h21.79c3.53-9.96,5.81-21.17,6.85-33.62l11.62,4.15
				c1.66,0.62,2.49,1.25,2.49,1.87c0,0.42-0.21,0.83-1.04,1.45l-5.4,3.94c-1.45,7.89-3.32,15.36-5.61,22.21h41.52l7.26-9.13
				l7.89,9.13c1.24,1.45,2.08,2.7,2.08,3.32c0,0.83-1.04,1.25-3.11,1.25h-57.29c-2.49,6.64-5.4,12.66-8.72,18.47h57.29l7.47-9.13
				l8.3,9.13c1.66,1.66,2.49,2.7,2.49,3.53c0,0.83-1.04,1.04-3.53,1.04h-40.48c11.42,13.7,32.38,25.32,51.27,25.32V344.89z
				 M595.53,237.79c1.25,1.25,2.08,2.28,2.08,2.9c0,0.62-1.04,0.83-2.9,0.83h-55.84c0,0.83,0.42,5.19,0.42,6.02
				c0,3.11-6.44,5.6-8.51,5.6c-1.24,0-1.87-0.83-1.87-3.11c0-1.25,0.42-7.06,0.42-8.51h-42.55c0,1.45,0.42,8.09,0.42,9.55
				c0,3.53-7.06,5.61-8.51,5.61c-1.24,0-1.66-1.25-1.66-3.95c0-1.66,0.21-9.54,0.21-11.21h-73.49c-4.36,0-10.38,0.83-13.91,2.28
				l-5.81-7.26c5.19,0.42,10.38,0.83,15.15,0.83h78.05v-7.06c0-5.19-0.21-11-0.62-17.85l13.28,5.19c1.66,0.62,2.49,1.25,2.49,1.87
				c0,0.83-0.62,1.04-5.61,4.57v13.28h42.55v-8.09c0-5.19-0.21-11-0.62-17.85l13.7,5.81c1.66,0.62,2.49,1.25,2.49,1.87
				c0,0.62-4.98,4.36-6.02,5.19v13.08h35.91l9.75-11L595.53,237.79z M467.05,333.48v-30.93h-26.98c0,9.96-0.21,20.14-0.62,30.93
				H467.05z M467.05,297.98v-29.47h-26.36c-0.21,9.76-0.42,19.51-0.42,29.47H467.05z M537.62,362.54
				c24.49,5.6,42.97,11.83,42.97,23.24c0,3.53-1.66,6.64-3.94,6.64c-1.66,0-3.95-1.66-6.02-4.57c-6.02-8.72-15.15-16.19-33-22.83
				v24.5c0,8.3-1.24,10.17-11.21,15.36c-0.41,0.21-1.04,0.42-1.45,0.42c-0.83,0-1.45-0.62-1.66-2.28
				c-0.83-4.36-3.74-7.68-19.1-12.87l0.42-2.49c9.76,1.87,15.78,2.9,19.31,2.9c4.36,0,4.98-1.45,4.98-4.36v-24.91l-26.36,14.74
				c-7.68,4.36-10.38,6.22-12.45,8.93c-0.62,0.62-1.04,1.03-1.45,1.03c-0.41,0-0.62-0.42-1.24-1.03l-5.6-7.27l47.12-19.09v-10.59
				c0-9.96-0.42-16.6-0.83-24.29l12.66,5.61c1.24,0.62,1.66,1.04,1.66,1.66c0,0.62-0.42,0.83-4.77,3.94v22
				c8.3-5.81,15.78-12.45,20.34-17.85l8.1,7.26c1.04,0.83,1.45,1.45,1.45,1.87c0,0.62-0.83,1.04-2.49,1.04
				c-3.94,0-6.64,0.83-27.4,11.41V362.54z M491.12,258.96c13.28,7.06,19.72,13.08,20.55,17.44c0,0.42,0.21,0.83,0.21,1.45
				c0,3.94-2.91,7.68-5.4,7.68c-1.66,0-2.7-0.62-3.53-3.53c-1.87-6.85-5.19-14.12-12.87-20.96L491.12,258.96z M575.19,265.4
				c1.25,0.83,1.66,1.45,1.66,2.07c0,0.62-0.62,0.83-2.08,1.04c-2.28,0.21-10.8,5.4-25.12,20.13l-2.28-0.83
				c6.43-9.96,12.66-19.93,18.27-28.85L575.19,265.4z"/>
			<path class="st0" d="M783.18,357.35c-8.09-0.62-13.49,0.83-18.47,4.57c-0.62,0.62-1.25,0.83-1.87,0.83
				c-3.32,0-49.4-37.36-67.46-99.43h-4.36v91.12h26.15l8.51-11.21l13.28,11.41c1.25,1.04,1.87,2.08,1.87,2.7
				c0,1.04-1.04,1.66-2.9,1.66h-46.91c0,14.74,0.21,27.19,0.62,36.33v1.04c0,3.53-1.04,4.77-5.81,7.47
				c-1.66,1.04-2.9,1.45-3.74,1.45c-1.04,0-1.45-1.04-1.45-3.32v-2.29c0.62-9.96,0.62-28.64,0.62-40.68h-29.27
				c-4.15,0-10.17,0.83-13.28,2.08l-5.61-7.47c4.77,0.42,9.96,0.83,14.53,0.83h33.62v-89.25c-23.25,47.12-50.65,82.61-89.46,110.01
				l-1.87-2.7c38.19-31.34,62.48-67.46,80.74-109.18h-52.51c-4.36,0-10.38,0.83-13.91,2.29l-5.81-7.68
				c5.19,0.42,10.38,0.83,15.15,0.83h67.67v-17.64c0-8.51-0.41-22.63-0.83-30.3l15.98,7.06c1.04,0.42,1.66,1.25,1.66,1.87
				c0,0.83-0.42,1.45-1.25,1.87l-5.81,3.53v33.62h57.08l9.34-13.7l13.91,14.12c1.04,1.04,1.45,1.87,1.45,2.49
				c0,1.04-1.04,1.66-3.11,1.66h-69.74c11.83,31.76,41.1,79.5,83.23,90.92V357.35z"/>
		</g>
		<g>
			<path class="st0" d="M849.51,240.65h21.61l3.57-4.45l5.84,4.97c0.7,0.58,1.04,1.03,1.04,1.35c0,0.32-0.32,0.68-0.96,1.09
				l-2.53,1.74v13.94c0,1.92,0.06,3.69,0.17,5.31l0.35,4.1c0,0.99-0.93,1.96-2.79,2.92c-1.86,0.96-3.06,1.44-3.62,1.44
				c-0.55,0-0.83-0.38-0.83-1.13v-5.23h-21.87v14.81c0,5.75,0.04,9.83,0.13,12.24c0.09,2.41,0.13,3.7,0.13,3.88
				c0,1.1-1.02,2.14-3.05,3.09c-2.04,0.96-3.3,1.44-3.79,1.44c-0.5,0-0.74-0.55-0.74-1.65l0.44-8.8c0.17-3.84,0.26-7.9,0.26-12.2
				v-12.81h-21.35v3.22c0,0.76-0.19,1.37-0.57,1.83c-0.38,0.46-1.25,0.99-2.61,1.57c-1.37,0.58-2.33,0.87-2.88,0.87
				c-0.55,0-0.9-0.21-1.05-0.65c-0.15-0.43-0.16-1.21-0.04-2.31c0.52-4.77,0.79-9.32,0.79-13.68v-10.89c0-3.83-0.09-7.38-0.26-10.63
				l7.06,4.62h20.91v-6.36c0-5.58-0.12-10.37-0.35-14.38l9.67,4c0.93,0.35,1.39,0.68,1.39,1c0,0.32-0.46,0.77-1.39,1.35l-2.7,1.65
				V240.65z M842.89,243.09h-21.35v21.17h21.35V243.09z M871.39,264.26v-21.17h-21.87v21.17H871.39z"/>
			<path class="st0" d="M916.87,248.32c0.64,0.41,0.96,0.8,0.96,1.17c0,0.38-0.48,0.69-1.44,0.96c-0.96,0.26-2.02,1.32-3.18,3.18
				c-8.19,13.13-16.7,23.41-25.53,30.85l-1.13-1.31c10.17-11.04,17.78-24.23,22.83-39.56L916.87,248.32z M933.51,226.79l-1.57,1.83
				v62.13c0,1.97-0.36,3.54-1.09,4.71c-0.73,1.16-2.31,2.5-4.75,4c-2.44,1.51-3.95,2.27-4.53,2.27c-0.58,0-0.96-0.46-1.13-1.39
				c-0.46-2.03-1.39-3.53-2.79-4.48c-1.39-0.96-4.1-1.91-8.1-2.83l0.44-1.74c4.41,0.64,8,0.96,10.76,0.96s4.14-0.73,4.14-2.18
				v-54.81c0-5.64-0.15-10.43-0.44-14.38l9.06,3.49c0.58,0.17,0.87,0.46,0.87,0.87S934.09,226.16,933.51,226.79z M939.18,245.01
				c4.71,3.19,8.99,6.42,12.85,9.67c3.86,3.26,7.04,6.25,9.54,8.98c2.5,2.73,4.08,4.82,4.75,6.27c0.67,1.46,1,3.05,1,4.8
				c0,1.74-0.42,3.16-1.26,4.27c-0.84,1.1-1.82,1.65-2.92,1.65c-0.58,0-1.09-0.29-1.53-0.87c-0.44-0.58-1-1.57-1.7-2.96
				c-3.31-7.03-6.68-12.79-10.11-17.29c-3.43-4.5-7.35-8.91-11.76-13.2L939.18,245.01z"/>
			<path class="st0" d="M847.95,317.53c-5.46,9.35-11.47,17.18-18.04,23.48c-6.56,6.3-14.46,11.81-23.7,16.51l-0.96-1.22
				c8.6-5.46,16.22-12.17,22.87-20.13c6.65-7.96,11.75-16.58,15.29-25.88l6.71,3.66c0.81,0.47,1.22,0.81,1.22,1.05
				c0,0.23-0.32,0.48-0.96,0.74c-0.64,0.26-1.02,0.42-1.13,0.48c8.13,15.62,20.59,25.21,37.38,28.75l-0.09,1.13
				c-3.13,0.52-5.26,2.18-6.36,4.97c-0.17,0.52-0.46,0.78-0.87,0.78c-0.81,0-3.75-1.69-8.8-5.05c-5.05-3.37-9.44-7.37-13.16-11.98
				C853.64,330.21,850.5,324.44,847.95,317.53z M826.6,384.19v-19.78c0-4.65-0.15-9.27-0.44-13.85l8.1,3.05
				c0.7,0.23,1.04,0.5,1.04,0.78c0,0.29-0.2,0.58-0.61,0.87l-2,1.31v27.62h13.51v-33.98c0-4.12-0.12-8.83-0.35-14.11l8.54,3.66
				c0.7,0.34,1.04,0.68,1.04,1s-0.26,0.71-0.78,1.17l-2.27,1.74v14.9h10.63l4.53-5.4l4.97,5.93c0.58,0.69,0.87,1.21,0.87,1.52
				s-0.52,0.48-1.57,0.48h-19.43v23.09h19.52l5.49-6.45l6.1,7.58c0.46,0.46,0.7,0.86,0.7,1.18c0,0.32-0.46,0.48-1.39,0.48h-66.31
				c-2.33,0-4.27,0.32-5.84,0.96l-3.14-4.27c2.09,0.35,4.44,0.52,7.06,0.52H826.6z"/>
			<path class="st0" d="M922.8,332.35h8.8v-11.07c0-1.74-0.12-4.88-0.35-9.41l7.58,2.96c0.81,0.29,1.22,0.57,1.22,0.83
				c0,0.26-0.35,0.54-1.04,0.83l-2,0.87v14.99h18.21l4.97-6.01l5.49,6.45c0.35,0.46,0.52,0.89,0.52,1.26c0,0.38-0.38,0.57-1.13,0.57
				H895c-2.38,0-4.33,0.29-5.84,0.87l-3.14-3.66c2.21,0.34,4.62,0.52,7.23,0.52h24.14v-10.19c0-1.92-0.15-5.06-0.44-9.41l6.88,2.53
				c0.81,0.35,1.22,0.68,1.22,1c0,0.32-0.26,0.63-0.79,0.91l-1.48,0.61V332.35z M931.07,347.07c2.56-3.84,4.59-7.84,6.1-12.03
				l5.84,2.7c0.7,0.41,1.05,0.78,1.05,1.13c0,0.35-0.44,0.65-1.31,0.91c-0.87,0.26-1.93,0.9-3.18,1.92c-1.25,1.02-3.1,2.8-5.53,5.36
				h14.29l4.36-5.23l4.97,5.84c0.35,0.41,0.52,0.8,0.52,1.17c0,0.38-0.35,0.57-1.05,0.57h-27.27v7.58h16.03l4.44-5.4l4.88,5.92
				c0.35,0.46,0.52,0.89,0.52,1.26c0,0.38-0.38,0.57-1.13,0.57h-24.75v7.32h22.74l5.49-6.54l5.92,7.06c0.46,0.52,0.7,0.96,0.7,1.3
				c0,0.35-0.41,0.53-1.22,0.53h-28.32c8.77,7.78,19.11,11.85,31.02,12.2l-0.09,1.39c-1.63,0.29-2.93,0.8-3.92,1.52
				c-0.99,0.73-1.74,1.87-2.27,3.44c-0.17,0.52-0.49,0.78-0.96,0.78c-0.7,0-2.99-0.88-6.89-2.66c-3.89-1.77-7.46-4.01-10.72-6.71
				c-3.25-2.7-6.16-6.02-8.71-9.98h-2.79v5.23c0,4.53,0.06,7.87,0.17,10.02c0.11,2.15,0.17,3.34,0.17,3.57
				c0,1.05-0.95,2.06-2.83,3.05c-1.89,0.99-3.08,1.48-3.57,1.48c-0.5,0-0.74-0.69-0.74-2.09c0-0.12,0.09-2.53,0.26-7.24
				c0.17-4.7,0.29-9.38,0.35-14.03h-0.44c-8.6,9.93-20.54,16.93-35.81,21l-0.44-1.31c12.14-5.11,21.73-11.68,28.75-19.69h-19.08
				c-2.33,0-4.27,0.29-5.84,0.87l-3.05-3.75c2.15,0.34,4.53,0.52,7.15,0.52h28.76v-7.32h-19.26c-2.38,0-4.33,0.29-5.84,0.87
				l-3.14-3.75c2.21,0.35,4.62,0.52,7.23,0.52h21v-7.58h-23.53c-2.44,0-4.39,0.32-5.84,0.96l-3.05-3.75
				c2.15,0.29,4.53,0.44,7.14,0.44H931.07z M898.75,317.18c4.12,1.16,7.28,2.47,9.45,3.92c2.18,1.46,3.27,2.82,3.27,4.1
				c0,3.49-1.04,5.23-3.13,5.23c-1.11,0-1.98-0.76-2.62-2.27c-0.64-1.51-1.63-3.18-2.96-5.01c-1.34-1.83-2.9-3.59-4.71-5.27
				L898.75,317.18z M910.95,335.48c5.92,1.97,8.89,4.12,8.89,6.45c0,1.39-0.34,2.54-1,3.44c-0.67,0.9-1.56,1.35-2.66,1.35
				c-1.1,0-1.74-0.78-1.92-2.35c-0.29-2.79-1.66-5.43-4.1-7.93L910.95,335.48z M955.04,319.54c0.75,0.64,1.13,1.15,1.13,1.52
				s-0.38,0.56-1.13,0.56c-1.86,0-3.49,0.55-4.88,1.66c-3.08,2.5-6.83,5.17-11.24,8.01l-1.04-1.04c4.7-4.76,8.68-9.76,11.94-14.99
				L955.04,319.54z"/>
		</g>
		<g>
			<path class="st0" d="M440.18,448.21c0.39,0.59,0.59,1.08,0.59,1.48c0,0.39-0.43,0.59-1.28,0.59h-35.57
				c-2.77,0-5.01,0.36-6.72,1.08l-3.56-4.35c2.5,0.4,5.24,0.59,8.2,0.59h26.68l5.53-6.62L440.18,448.21z M433.46,460.56
				c0.39,0.46,0.59,0.91,0.59,1.33c0,0.43-0.43,0.64-1.28,0.64h-23.32c-2.76,0-5,0.36-6.72,1.08l-3.56-4.25
				c2.5,0.33,5.24,0.5,8.2,0.5h15.71l4.94-5.83L433.46,460.56z M431.98,473.01c0.39,0.59,0.59,1.07,0.59,1.43
				c0,0.36-0.43,0.54-1.28,0.54h-21.84c-2.76,0-5,0.36-6.72,1.09l-3.56-4.25c2.5,0.33,5.24,0.49,8.2,0.49h14.43l4.84-5.73
				L431.98,473.01z M408.75,483.68h13.64l2.96-3.85l5.83,4.45c0.53,0.4,0.79,0.76,0.79,1.09s-0.26,0.63-0.79,0.89l-1.78,1.19v11.36
				c0,2.24,0.07,4.31,0.2,6.22l0.3,4.55c0,1.18-0.86,2.31-2.57,3.36c-1.71,1.05-2.88,1.58-3.51,1.58c-0.63,0-0.94-0.46-0.94-1.38
				v-5.93h-14.03v7.11c0,1.52-0.96,2.68-2.87,3.51c-1.91,0.82-3.13,1.24-3.66,1.24c-0.53,0-0.79-0.36-0.79-1.09
				c0-0.72,0.03-1.45,0.1-2.17c0.59-5.4,0.89-10.57,0.89-15.51v-8.6c0-4.35-0.13-8.37-0.4-12.06L408.75,483.68z M422.88,504.34
				v-17.89h-14.03v17.89H422.88z M409.84,430.22c3.62,0.93,6.54,2.23,8.74,3.91c2.21,1.68,3.31,3.33,3.31,4.94s-0.43,3.08-1.28,4.4
				c-0.86,1.32-1.78,1.98-2.77,1.98c-1.52,0-2.42-0.94-2.72-2.82c-0.29-1.88-1-3.87-2.12-5.98c-1.12-2.11-2.4-3.82-3.85-5.14
				L409.84,430.22z M482.57,492.87c0.79,0.66,1.18,1.19,1.18,1.58c0,0.39-0.69,0.64-2.08,0.74c-1.38,0.1-3.46,1.43-6.22,4
				c-7.18,6.65-14.31,11.58-21.39,14.77c-7.08,3.19-15.83,5.75-26.24,7.66l-0.4-2.17c23.06-7.05,39.26-17.72,48.62-32.02
				L482.57,492.87z M459.15,438.92c-3.62,6.72-7.21,12.29-10.77,16.7c-3.56,4.42-8.6,9.42-15.12,15.02l-1.28-1.29
				c12.05-14.03,19.7-27.17,22.92-39.43l7.71,3.95c0.92,0.46,1.38,0.9,1.38,1.33c0,0.43-0.48,0.78-1.43,1.04
				c-0.95,0.26-1.6,0.5-1.93,0.69c3.1,6.32,7.07,11.69,11.91,16.1c4.84,4.42,10.03,7.41,15.56,8.99v1.48
				c-1.84,0-3.39,0.22-4.64,0.64c-1.25,0.43-2.08,1.15-2.47,2.17c-0.39,1.02-0.76,1.53-1.09,1.53c-0.59,0-2.54-1.35-5.83-4.05
				c-3.29-2.7-6.26-6.11-8.89-10.23C462.54,449.48,460.53,444.59,459.15,438.92z M472.29,476.57c0.79,0.53,1.18,1.03,1.18,1.49
				s-0.54,0.71-1.63,0.74c-1.09,0.03-3.52,2.02-7.31,5.98c-3.79,3.95-8.52,7.84-14.18,11.66c-5.66,3.82-10.93,6.46-15.81,7.9
				l-0.89-1.28c6.59-4.09,12.83-8.91,18.73-14.48c5.9-5.56,10.39-11.02,13.49-16.35L472.29,476.57z M464.49,462.34
				c0.72,0.47,1.09,0.93,1.09,1.38c0,0.59-0.41,0.93-1.24,0.99c-0.82,0.06-1.71,0.46-2.67,1.18c-0.96,0.73-1.93,1.65-2.91,2.77
				c-2.37,2.77-6.01,6.18-10.92,10.23c-4.91,4.05-9.24,7.03-12.99,8.94l-0.99-1.48c4.68-3.62,9.34-8.2,13.98-13.73
				c4.64-5.53,8.02-10.44,10.13-14.73L464.49,462.34z"/>
			<path class="st0" d="M506.88,501.18v6.52h25.79l4.15-5.04l5.14,6.03c3.56-5.47,5.68-12.91,6.37-22.33
				c0.69-9.42,1.04-18.61,1.04-27.57c0-8.95-0.07-16.43-0.2-22.43l7.21,4.15c5.27-1.78,11.66-5.21,19.17-10.28l5.83,7.11
				c0.46,0.53,0.69,0.96,0.69,1.29c0,0.33-0.33,0.5-0.99,0.5l-1.88-0.1c-1.84,0-3.62,0.16-5.34,0.49l-17.49,3.46l-0.59,22.73h18.38
				l5.24-6.32l6.13,7.32c0.4,0.53,0.59,0.95,0.59,1.28c0,0.33-0.46,0.5-1.38,0.5h-11.07v30.24l0.2,18.88c0,1.25-1.05,2.38-3.16,3.41
				c-2.11,1.02-3.44,1.53-4,1.53s-0.84-0.69-0.84-2.08l0.49-10.77c0.2-4.74,0.3-9.13,0.3-13.15v-28.06h-10.97
				c-0.53,17.72-2.44,29.79-5.73,36.22c-3.29,6.42-9.98,12.3-20.06,17.64l-0.99-1.38c5.14-3.43,9.06-6.92,11.76-10.48h-33.6
				l-3.36,3.75c-0.46,0.59-0.86,0.89-1.19,0.89c-0.33,0-0.79-0.36-1.38-1.08l-4.25-4.94c2.3-1.25,3.46-2.8,3.46-4.64V449.1
				c0-7.38-0.13-12.81-0.4-16.31l10.87,6.62l-3.95,2.87v23.13c2.37,0.33,4.84,0.49,7.41,0.49h9.49v-20.16c0-5.14-0.13-10.6-0.4-16.4
				l8.5,3.86c0.85,0.39,1.28,0.74,1.28,1.04s-0.39,0.71-1.18,1.24l-1.88,1.18v29.25h5.63l4.55-5.33l4.84,5.93
				c0.59,0.73,0.89,1.27,0.89,1.63c0,0.36-0.49,0.54-1.48,0.54H530.1v6.23c4.81,1.84,8.5,3.79,11.07,5.83
				c2.57,2.05,3.85,3.89,3.85,5.53c0,1.65-0.3,2.98-0.89,4c-0.59,1.02-1.38,1.53-2.37,1.53c-0.99,0-1.78-0.69-2.37-2.08
				c-0.59-1.38-1.84-3.44-3.76-6.18c-1.91-2.73-3.75-4.99-5.53-6.77v5.43c0,6.39,0.05,11.04,0.15,13.94s0.15,4.48,0.15,4.74
				c0,1.18-0.97,2.32-2.92,3.41c-1.94,1.09-3.23,1.63-3.85,1.63c-0.63,0-0.94-0.56-0.94-1.68c0-1.12,0.18-4.03,0.54-8.74
				c0.36-4.71,0.54-9.9,0.54-15.56V474c-3.43,9.81-8.93,19.1-16.5,27.87L506.88,501.18z M506.88,466.1v33.1
				c6.52-11.06,10.77-21.25,12.75-30.54h-3.26c-2.77,0-4.94,0.36-6.52,1.09L506.88,466.1z M511.03,444.06c4.35,3.69,7.15,6.36,8.4,8
				c1.25,1.65,1.88,3.19,1.88,4.65c0,1.45-0.49,2.75-1.48,3.9s-1.99,1.73-3.02,1.73s-1.66-1.05-1.93-3.16
				c-0.79-5.99-2.34-10.71-4.64-14.13L511.03,444.06z M544.53,445.64c0.72,0.46,1.09,0.89,1.09,1.29c0,0.39-0.36,0.76-1.09,1.08
				c-0.73,0.33-1.58,1.03-2.57,2.08l-10.38,12.65l-1.09-0.79c3.42-6,6.36-12.71,8.79-20.16L544.53,445.64z"/>
			<path class="st0" d="M642.26,470.35v42.69h20.75l6.32-7.51l6.92,8.2c0.46,0.53,0.69,1.02,0.69,1.48c0,0.46-0.43,0.69-1.28,0.69
				h-65.71c-2.7,0-4.94,0.36-6.72,1.08l-3.56-4.45c2.5,0.33,5.24,0.5,8.2,0.5h27.17v-42.69h-30.93c-2.83,0-5.11,0.36-6.82,1.08
				l-3.56-4.45c2.5,0.33,5.27,0.5,8.3,0.5h33.01v-22.73c0-3.69-0.1-7.28-0.3-10.77l10.67,5.33c1.05,0.46,1.58,0.89,1.58,1.29
				s-0.43,0.86-1.28,1.38l-3.46,1.98v23.52h27.27l6.22-7.51l6.92,8.3c0.4,0.39,0.59,0.84,0.59,1.33c0,0.49-0.4,0.74-1.18,0.74
				H642.26z"/>
			<path class="st0" d="M734.16,445.54h-28.26c-2.7,0-4.91,0.33-6.62,0.99l-3.76-4.45c2.5,0.33,5.2,0.5,8.1,0.5h30.54
				c0-4.15-0.13-8.3-0.4-12.45l9.48,3.86c0.99,0.39,1.48,0.76,1.48,1.08c0,0.33-0.46,0.82-1.38,1.48l-2.17,1.48v4.55h26.48
				l6.22-7.21l7.31,8.5c0.46,0.46,0.69,0.85,0.69,1.18c0,0.33-0.46,0.5-1.38,0.5h-39.33v6.92h16.9l3.95-4.65l6.03,4.45
				c0.53,0.33,0.79,0.64,0.79,0.94c0,0.29-0.26,0.61-0.79,0.94l-2.17,1.58v4.45c0,1.12,0.06,2.24,0.2,3.36l0.2,2.77
				c0,0.86-0.99,1.75-2.97,2.67c-1.97,0.92-3.24,1.38-3.8,1.38c-0.56,0-0.84-0.43-0.84-1.29v-2.08h-17.49v7.9h17.79l4.25-4.54
				l6.72,4.94c0.46,0.26,0.69,0.56,0.69,0.89c0,0.33-0.23,0.63-0.69,0.89l-2.17,1.29v7.51h2.47l5.73-6.82l7.02,7.9
				c0.46,0.53,0.69,0.94,0.69,1.24c0,0.29-0.5,0.44-1.48,0.44h-14.43v4.25l0.59,8.2c0,0.66-0.3,1.24-0.89,1.73
				c-0.59,0.5-1.63,1.1-3.11,1.83c-1.48,0.73-2.5,1.08-3.06,1.08c-0.56,0-0.84-0.43-0.84-1.28v-3.95h-19.27v8.4
				c0,3.1-0.28,5.25-0.84,6.47c-0.56,1.22-2.04,2.6-4.45,4.15c-2.41,1.55-3.82,2.32-4.25,2.32c-0.43,0-0.69-0.73-0.79-2.17
				c-0.1-1.45-0.43-2.54-0.99-3.26c-0.56-0.73-1.76-1.35-3.61-1.87c-1.85-0.53-5.04-1.19-9.59-1.98l0.1-1.38
				c5.01,0.26,8.56,0.39,10.67,0.39c2.11,0,3.62-0.11,4.55-0.34c0.92-0.23,1.51-0.63,1.78-1.19c0.26-0.56,0.4-1.4,0.4-2.52v-7.02
				h-25.2c-2.5,0-4.71,0.33-6.62,0.99l-3.46-4.54c2.37,0.4,5.04,0.59,8,0.59h27.27v-8.9h-31.03c-2.5,0-4.71,0.36-6.62,1.09
				l-3.66-4.25c2.57,0.26,5.24,0.39,8,0.39h33.3v-8.3h-24.9c-2.7,0-4.91,0.33-6.62,0.99l-3.46-4.25c2.44,0.4,5.1,0.59,8,0.59h26.98
				v-7.9h-16.9c0,0.86-0.82,1.75-2.47,2.67s-2.87,1.38-3.66,1.38c-0.79,0-1.12-1.05-0.99-3.16c0.2-2.5,0.3-4.18,0.3-5.04v-6.03
				c0-1.78-0.1-4.28-0.3-7.51l6.52,3.16h17.49V445.54z M734.16,464.32v-9.19h-16.9v9.19H734.16z M741.17,455.13v9.19h17.49v-9.19
				H741.17z M741.17,477.56v8.3h19.27v-8.3H741.17z M741.17,488.62v8.9h19.27v-8.9H741.17z"/>
			<path class="st0" d="M807.28,468.17h-8.2c-2.83,0-5.11,0.36-6.82,1.08l-3.56-4.54c2.5,0.39,5.27,0.59,8.3,0.59h27.27l3.26-4.15
				l6.32,5.24c0.79,0.59,1.19,1.09,1.19,1.48c0,0.4-0.71,0.73-2.12,0.99c-1.42,0.26-2.75,0.84-4,1.73
				c-1.25,0.89-3.29,2.78-6.13,5.68l-1.97-0.99l3.95-7.11h-8.1v38.54c0,5.33-1.15,8.83-3.46,10.47c-2.31,1.65-3.89,2.47-4.74,2.47
				c-0.4,0-0.73-0.59-0.99-1.78c-0.4-2.5-3.82-4.68-10.28-6.52l0.39-2.08c3.29,0.53,5.83,0.79,7.61,0.79c1.78,0,3.04-0.26,3.81-0.79
				c0.76-0.53,1.14-1.42,1.14-2.66v-30.04c-4.28,10.67-11.27,20.16-20.95,28.46l-1.29-1.08
				C796.8,494.39,803.26,482.47,807.28,468.17z M813.8,453.55l7.71-11.56h-18.87c-2.83,0-5.07,0.36-6.72,1.08l-3.56-4.35
				c2.5,0.33,5.24,0.5,8.2,0.5h20.85l3.56-4.35l6.13,5.73c0.73,0.66,1.09,1.22,1.09,1.68c0,0.46-0.64,0.76-1.93,0.89
				c-1.29,0.13-2.88,0.97-4.79,2.52c-1.91,1.55-5.17,4.7-9.78,9.44c1.38,1.19,2.08,2.17,2.08,2.97c0,2.04-0.35,3.64-1.04,4.79
				c-0.69,1.15-1.5,1.73-2.42,1.73c-0.72,0-1.58-0.99-2.57-2.97c-1.65-3.95-5.04-7.9-10.18-11.85l0.79-1.58
				C806.95,449.73,810.77,451.5,813.8,453.55z M841.07,451.67c-2.9,4.28-5.9,8-8.99,11.16l-1.28-1.19
				c6.98-13.11,11.46-23.55,13.44-31.32l7.71,3.26c0.99,0.46,1.48,0.94,1.48,1.43c0,0.5-0.59,0.96-1.78,1.38
				c-1.18,0.43-2.11,1.25-2.77,2.47c-0.66,1.22-1.48,2.65-2.47,4.3h15.71l3.85-3.46l5.73,5.04c0.86,0.79,1.29,1.43,1.29,1.93
				c0,0.49-0.59,0.85-1.78,1.08s-2.24,1.1-3.16,2.62c-3.49,5.93-7.38,10.93-11.66,15.02c6.06,3.75,14.73,6.42,25.99,8v1.58
				c-2.31,0.4-3.85,0.86-4.64,1.38c-0.79,0.53-1.65,1.78-2.57,3.75c-0.33,0.66-0.71,0.99-1.14,0.99c-0.43,0-3.41-1.37-8.94-4.1
				c-5.53-2.73-9.78-5.39-12.75-7.95c-3.1,2.37-5.77,4.21-8,5.53l7.01,2.47c0.99,0.33,1.48,0.71,1.48,1.14
				c0,0.43-0.41,0.89-1.23,1.38c-0.82,0.49-1.35,1.38-1.58,2.66c-0.23,1.29-0.58,2.95-1.04,4.99h13.34l3.16-4.45l6.42,4.55
				c0.59,0.46,0.89,0.89,0.89,1.28c0,0.4-0.36,0.86-1.09,1.38l-2.07,1.88c-0.07,4.61-0.4,9.34-0.99,14.18
				c-0.59,4.84-1.3,8.04-2.12,9.58c-0.82,1.55-2.34,3.01-4.55,4.4c-2.21,1.38-3.54,2.08-4,2.08c-0.46,0-0.79-0.53-0.99-1.58
				c-0.26-2.96-2.96-5.33-8.1-7.11l0.59-1.78c2.7,0.72,4.97,1.08,6.82,1.08s3.24-0.48,4.2-1.43c0.95-0.96,1.61-3.18,1.97-6.67
				c0.36-3.49,0.54-8.33,0.54-14.53h-14.53c-1.71,9.75-4.81,16.93-9.29,21.55c-4.48,4.61-11.07,8.69-19.76,12.25l-1.09-1.58
				c7.64-4.28,13.22-8.85,16.75-13.69c3.52-4.84,5.84-11.02,6.97-18.53h-6.42c-2.77,0-5.01,0.36-6.72,1.09l-3.56-4.45
				c2.57,0.33,5.34,0.49,8.3,0.49h8.89c0.66-4.08,1.02-8.16,1.09-12.25c-5.93,3.49-12.68,6.59-20.26,9.29l-0.99-1.87
				c11.72-5.73,20.49-11.4,26.29-17C845.85,462.11,843.31,457.53,841.07,451.67z M844.73,446.04c-0.73,1.32-1.45,2.5-2.17,3.56
				c2.7,5.07,5.83,9.22,9.39,12.45c4.08-4.54,7.67-9.88,10.77-16.01H844.73z"/>
			<path class="st0" d="M907.28,459.18h13.44l2.87-4.15l7.11,5.04c0.53,0.4,0.79,0.76,0.79,1.09c0,0.33-0.33,0.69-0.99,1.08
				l-2.67,1.68v10.37c0,2.05,0.06,4.02,0.2,5.93l0.4,4.84c0,1.19-0.95,2.31-2.87,3.36s-3.16,1.58-3.75,1.58
				c-0.59,0-0.89-0.46-0.89-1.38v-6.22h-14.23c-0.33,8.43-1.8,15.54-4.4,21.34c-2.6,5.79-7.03,11.53-13.29,17.19l-1.09-1.29
				c4.68-6,7.94-11.87,9.78-17.64c1.84-5.77,2.77-13.65,2.77-23.67c0-18.77-0.2-32.48-0.59-41.11l8.89,5.53
				c5.86-2.24,12.58-5.3,20.16-9.19l5.04,5.53c0.59,0.66,0.89,1.27,0.89,1.83c0,0.56-0.53,0.75-1.58,0.54
				c-0.46-0.06-1.1-0.1-1.93-0.1c-0.82,0-2.22,0.2-4.2,0.59l-19.86,4.45V459.18z M920.92,479.63v-17.69h-13.73
				c0,6.46-0.1,12.35-0.3,17.69H920.92z M945.22,468.86c-0.07,10.54-0.91,18.74-2.52,24.6c-1.61,5.86-4.64,10.8-9.09,14.82
				c-4.45,4.02-11.32,8.27-20.6,12.75l-0.79-1.58c5.34-3.43,9.59-6.49,12.75-9.19c3.16-2.7,5.65-5.49,7.46-8.35
				c1.81-2.87,3.18-6.21,4.1-10.03c0.92-3.82,1.46-7.28,1.63-10.38c0.16-3.1,0.25-8.3,0.25-15.61c0-7.31-0.13-16.53-0.4-27.66
				l8.01,4.74c7.38-2.57,15.28-6.06,23.71-10.47l5.63,5.73c0.72,0.79,1.09,1.42,1.09,1.87c0,0.46-0.36,0.69-1.09,0.69l-1.48-0.2
				c-1.58,0-3.59,0.29-6.03,0.89l-22.33,4.94c0,5.67-0.1,12.19-0.3,19.57h22.83l6.13-7.22l7.11,8.4c0.46,0.59,0.69,1.03,0.69,1.29
				c0,0.26-0.46,0.4-1.38,0.4h-15.32v29.25c0,6.12,0.03,10.37,0.1,12.75l0.3,41c0,1.05-1.04,2.2-3.11,3.46
				c-2.08,1.25-3.46,1.87-4.15,1.87c-0.69,0-1.04-0.82-1.04-2.47l0.59-45.25c0.2-4.42,0.3-8.93,0.3-13.54v-27.08H945.22z"/>
		</g>
		<path class="st1" d="M968.85,402.82H808.14c-6.81,0-12.34-5.68-12.34-12.67V225.19c0-6.99,5.54-12.67,12.34-12.67h160.71
			c6.81,0,12.34,5.68,12.34,12.67v164.96C981.19,397.14,975.65,402.82,968.85,402.82z M808.14,217.41c-4.18,0-7.58,3.49-7.58,7.78
			v164.96c0,4.29,3.4,7.78,7.58,7.78h160.71c4.18,0,7.58-3.49,7.58-7.78V225.19c0-4.29-3.4-7.78-7.58-7.78H808.14z"/>
	</g>
	<path class="st0" d="M987.38,418.68c0,0-136.28,2.1-304.38,2.1s-304.38-2.1-304.38-2.1s136.28-2.1,304.38-2.1
		S987.38,418.68,987.38,418.68z"/>
</g>
</svg>
