<?xml version="1.0" encoding="utf-8"?>
<!-- Generator: Adobe Illustrator 25.2.1, SVG Export Plug-In . SVG Version: 6.00 Build 0)  -->
<svg version="1.1" id="レイヤー_1" xmlns="http://www.w3.org/2000/svg" xmlns:xlink="http://www.w3.org/1999/xlink" x="0px"
	 y="0px" viewBox="0 0 512 512" style="enable-background:new 0 0 512 512;" xml:space="preserve">
<style type="text/css">
	.st0{fill:#305A9C;}
	.st1{fill:#FFFFFF;}
	.st2{fill:#305A9C;stroke:#FFFFFF;stroke-width:2;stroke-miterlimit:10;}
	.st3{font-family:'KozGoPr6N-Regular-83pv-RKSJ-H';}
	.st4{font-size:147.9851px;}
</style>
<path class="st0" d="M407,319.52C407,384.96,338.5,438,254,438s-153-53.04-153-118.48s69.78-145.75,154.28-145.75
	S407,254.09,407,319.52z"/>
<path class="st0" d="M305.44,83c-13.6,1.94-31.91-7.43-50.37-8.89c-0.35-0.08-0.7-0.13-1.08-0.11c-0.09,0-0.19,0.01-0.28,0.02
	c-0.09-0.01-0.18-0.01-0.28-0.02c-0.38-0.02-0.73,0.03-1.08,0.11C233.91,75.57,215.6,84.94,202,83c-14-2-71,11-26,27l77.33,91.41
	c0.07,0.52,0.11,0.79,0.11,0.79l0.28-0.33l0.28,0.33c0,0,0.04-0.28,0.11-0.79L331.44,110C376.44,94,319.44,81,305.44,83z"/>
<text transform="matrix(1 0 0 1 171 363.625)" class="st1 st3 st4">¥</text>
</svg>
