<?xml version="1.0" encoding="utf-8"?>
<!-- Generator: Adobe Illustrator 25.2.1, SVG Export Plug-In . SVG Version: 6.00 Build 0)  -->
<svg version="1.1" id="レイヤー_1" xmlns="http://www.w3.org/2000/svg" xmlns:xlink="http://www.w3.org/1999/xlink" x="0px"
	 y="0px" viewBox="0 0 512 512" style="enable-background:new 0 0 512 512;" xml:space="preserve">
<style type="text/css">
	.st0{fill:#305A9C;}
	.st1{fill:#FFFFFF;}
	.st2{fill:#305A9C;stroke:#FFFFFF;stroke-width:2;stroke-miterlimit:10;}
</style>
<path class="st0" d="M242.08,304.59l79.14-70.2c9.25-8.2,23.52-7.35,31.72,1.9l0,0c8.2,9.25,7.35,23.52-1.9,31.72l-79.14,70.2
	c-9.25,8.2-23.52,7.35-31.72-1.9l0,0C231.98,327.07,232.84,312.79,242.08,304.59z"/>
<path class="st1" d="M255.34,348.46c-6.55,0-12.85-2.38-17.72-6.71l-79.14-70.2c-5.32-4.72-8.49-11.26-8.92-18.41
	c-0.43-7.15,1.94-14.02,6.66-19.34c5.05-5.7,12.35-8.97,20.02-8.97c6.55,0,12.85,2.38,17.72,6.71l79.14,70.2
	c5.32,4.72,8.49,11.26,8.92,18.41c0.43,7.15-1.94,14.02-6.66,19.34C270.31,345.19,263.01,348.46,255.34,348.46
	C255.34,348.46,255.34,348.46,255.34,348.46z"/>
<path class="st0" d="M270.27,304.94l-79.14-70.2c-9.25-8.2-23.52-7.35-31.72,1.9l0,0c-8.2,9.25-7.35,23.52,1.9,31.72l79.14,70.2
	c9.25,8.2,23.52,7.35,31.72-1.9v0C280.37,327.41,279.52,313.14,270.27,304.94z"/>
<path class="st0" d="M92.36,413.38h113.43V265.43c0-37.51-30.69-68.21-68.21-68.21h0c-24.87,0-45.22,20.35-45.22,45.22
	c0,0,9.08,41.78,9.08,77.61S92.36,413.38,92.36,413.38z"/>
<circle class="st0" cx="148.97" cy="146.17" r="47.62"/>
<path class="st0" d="M420,413.03H306.57V265.08c0-37.51,30.69-68.21,68.21-68.21h0c24.87,0,45.22,20.35,45.22,45.22
	c0,0-9.08,41.78-9.08,77.61S420,413.03,420,413.03z"/>
<circle class="st0" cx="363.39" cy="145.82" r="47.62"/>
</svg>
