<?xml version="1.0" encoding="utf-8"?>
<!-- Generator: Adobe Illustrator 25.2.1, SVG Export Plug-In . SVG Version: 6.00 Build 0)  -->
<svg version="1.1" id="レイヤー_1" xmlns="http://www.w3.org/2000/svg" xmlns:xlink="http://www.w3.org/1999/xlink" x="0px"
	 y="0px" viewBox="0 0 512 512" style="enable-background:new 0 0 512 512;" xml:space="preserve">
<style type="text/css">
	.st0{fill:#305A9C;}
	.st1{fill:#FFFFFF;}
	.st2{fill:#305A9C;stroke:#FFFFFF;stroke-width:2;stroke-miterlimit:10;}
</style>
<ellipse transform="matrix(0.9966 -0.0827 0.0827 0.9966 -18.5064 21.7614)" class="st0" cx="253.35" cy="234.21" rx="195.15" ry="74.97"/>
<ellipse transform="matrix(0.9966 -0.0827 0.0827 0.9966 -18.2347 21.7274)" class="st1" cx="253.08" cy="230.91" rx="120.94" ry="46.46"/>
<path class="st0" d="M262.06,339.14c-88.03,7.31-164.24-8.99-190.78-37.82c-4.72,7.23-6.97,14.65-6.35,22.1
	c3.43,41.27,93.28,67.49,200.69,58.57c107.41-8.92,191.71-49.6,188.28-90.86c-0.62-7.45-4.07-14.4-9.91-20.75
	C422.57,303.19,350.09,331.83,262.06,339.14z"/>
<polygon class="st2" points="401.54,182.86 249.67,197.02 264.29,254.34 "/>
<polygon class="st2" points="97.61,259.83 257.79,254.35 244.16,199.05 "/>
</svg>
