<?xml version="1.0" encoding="utf-8"?>
<!-- Generator: Adobe Illustrator 25.2.1, SVG Export Plug-In . SVG Version: 6.00 Build 0)  -->
<svg version="1.1" id="logo" xmlns="http://www.w3.org/2000/svg" xmlns:xlink="http://www.w3.org/1999/xlink" x="0px" y="0px"
	 viewBox="0 0 1200 630" style="enable-background:new 0 0 1200 630;" xml:space="preserve">
<style type="text/css">
	.st0{fill:#305A9C;}
</style>
<g>
	<path class="st0" d="M292.78,250.52h-58.55v117.1h58.55c32.34,0,58.55-26.21,58.55-58.55S325.12,250.52,292.78,250.52z
		 M292.78,348.56L292.78,348.56l-0.17,0c0,0,0,0,0,0s0,0,0,0h-39.66v-79.32h39.83v0c21.82,0.09,39.49,17.81,39.49,39.66
		C332.27,330.75,314.6,348.47,292.78,348.56z"/>
	<path class="st0" d="M944.68,308.73c-0.18-32.18-26.32-58.21-58.55-58.21c-32,0-57.99,25.67-58.54,57.53h-0.02v59.57h19.11V327.8
		h79.32v39.83h18.68L944.68,308.73L944.68,308.73z M846.69,309.07v-0.34h0.01c0.25-21.69,17.91-39.19,39.65-39.19
		c21.75,0,39.4,17.5,39.65,39.19h0.01v0.34H846.69z"/>
	<rect x="1131.92" y="254.61" class="st0" width="18.72" height="113.02"/>
	<polygon class="st0" points="797.96,250.52 797.96,341.75 718.64,250.52 699.92,250.52 699.92,367.63 718.64,367.63 718.64,280.14 
		797.96,367.63 817.03,367.63 817.03,250.52 	"/>
	<path class="st0" d="M576.01,259.88v-9.36h-9.36h0H463.67v0.08c6.6,5.13,12.29,11.44,16.79,18.64h32.23v98.38h18.72v-98.38h44.6
		V259.88C576.01,259.88,576.01,259.88,576.01,259.88z"/>
	<rect x="1082.9" y="250.84" class="st0" width="117.1" height="18.4"/>
	<path class="st0" d="M955.12,309.48c0.18,32.18,26.32,58.21,58.55,58.21c32,0,57.99-25.67,58.54-57.53h0.02v-59.57h-18.43v59.57
		h0.02c-0.63,21.54-18.28,38.81-39.98,38.81c-21.92,0-39.72-17.63-39.99-39.49l0.33-58.89h-19.06L955.12,309.48L955.12,309.48z"/>
	<path class="st0" d="M688.39,308.86c-0.18-32.18-26.32-58.21-58.55-58.21c-32,0-57.99,25.67-58.54,57.53h-0.02v59.57h19.11v-39.83
		h79.32v39.83h18.68L688.39,308.86L688.39,308.86z M590.4,309.2v-0.34h0.01c0.25-21.69,17.91-39.19,39.65-39.19
		c21.75,0,39.4,17.5,39.65,39.19h0.01v0.34H590.4z"/>
	<path class="st0" d="M477.87,308.51c-0.18-32.18-26.32-58.21-58.55-58.21c-32,0-57.99,25.67-58.54,57.53h-0.02v59.57h19.11v-39.83
		h79.32v39.83h18.68L477.87,308.51L477.87,308.51z M379.88,308.85v-0.34h0.01c0.25-21.69,17.91-39.19,39.65-39.19
		s39.4,17.5,39.65,39.19h0.01v0.34H379.88z"/>
</g>
<g>
	<path class="st0" d="M165.78,254.13"/>
	<path class="st0" d="M168.85,359.07"/>
	<polygon class="st0" points="167.93,408 -0.42,335.31 9.99,326.6 167.93,393.73 	"/>
	<path class="st0" d="M201.36,284.73c-6.55-25.03-22.45-46.02-44.78-59.09c-22.24-13.02-48.21-16.63-73.15-10.19
		c-1.11-1.24-2.4-2.32-3.88-3.18c-3.71-2.17-8.05-2.77-12.2-1.68c-4.16,1.09-7.65,3.73-9.82,7.44c-1.73,2.96-2.45,6.31-2.12,9.66
		c-30.08,19.3-47.61,54.22-44.22,90.51l14.29,6.02c-6.15-33.62,9.01-66.96,36.61-84.96c2.57,1.83,5.67,2.89,8.9,2.98l18.14,41.29
		c-10.31,7.44-15.56,20.71-12.15,33.73c2.14,8.19,7.34,15.05,14.65,19.33c5.16,3.02,10.93,4.49,16.76,4.34
		c2.43-0.06,4.86-0.4,7.27-1.03c6.81-1.78,12.52-5.66,16.63-10.77L165,356.91c0,0,17.8-21.84,16.82-50.5
		c-1.35-39.48-31.55-57.94-31.55-57.94l-24,35.14c-0.84-0.61-1.72-1.18-2.63-1.72c-6.53-3.82-14.04-5.16-21.42-3.87L83.9,236.3
		c0.51-0.63,0.99-1.29,1.41-2.01c1.11-1.9,1.8-3.96,2.08-6.08c6.06-1.52,12.18-2.35,18.28-2.51c15.36-0.39,30.58,3.49,44.17,11.45
		c19.26,11.27,32.97,29.37,38.61,50.95c5.65,21.58,2.55,44.08-8.72,63.33c-6.43,10.98-15.08,20.15-25.33,27.06l14.27,6.01
		c8.93-7.25,16.59-16.1,22.57-26.33C204.31,335.85,207.9,309.76,201.36,284.73z M71.32,234.42c-4.22,0.11-7.74-3.23-7.84-7.45
		c-0.11-4.22,3.23-7.74,7.45-7.84c4.22-0.11,7.74,3.23,7.84,7.45C78.88,230.8,75.54,234.31,71.32,234.42z M116.91,293.41
		c4.23,2.48,7.24,6.45,8.48,11.19c2.56,9.79-3.32,19.83-13.11,22.39c-4.74,1.24-9.68,0.56-13.91-1.92
		c-4.23-2.47-7.24-6.45-8.48-11.19c-2.56-9.79,3.32-19.83,13.11-22.39c1.4-0.36,2.8-0.56,4.21-0.6
		C110.58,290.81,113.92,291.66,116.91,293.41z"/>
</g>
</svg>
