<?xml version="1.0" encoding="utf-8"?>
<!-- Generator: Adobe Illustrator 25.2.1, SVG Export Plug-In . SVG Version: 6.00 Build 0)  -->
<svg version="1.1" id="icon" xmlns="http://www.w3.org/2000/svg" xmlns:xlink="http://www.w3.org/1999/xlink" x="0px" y="0px"
	 viewBox="0 0 1200 1200" style="enable-background:new 0 0 1200 1200;" xml:space="preserve">
<style type="text/css">
	.st0{fill:#305A9C;}
</style>
<g>
	<path class="st0" d="M972.87,278.71"/>
	<path class="st0" d="M990.88,892.86"/>
	<polygon class="st0" points="985.47,1179.23 0.21,753.84 61.1,702.85 985.47,1095.7 	"/>
	<path class="st0" d="M1181.1,457.79c-38.32-146.5-131.39-269.32-262.09-345.82c-130.18-76.2-282.13-97.35-428.13-59.65
		c-6.48-7.25-14.07-13.56-22.69-18.61C446.48,21,421.1,17.52,396.77,23.87C372.41,30.23,352,45.7,339.29,67.42
		c-10.14,17.32-14.31,36.95-12.4,56.54C150.86,236.88,48.27,441.26,68.1,653.68l83.64,35.22c-36-196.75,52.71-391.87,214.29-497.22
		c15.07,10.7,33.16,16.93,52.11,17.44l106.18,241.63c-60.35,43.54-91.06,121.23-71.13,197.43c12.53,47.93,42.99,88.1,85.73,113.13
		c30.2,17.67,63.97,26.28,98.08,25.41c14.2-0.36,28.47-2.37,42.54-6.05c39.86-10.43,73.3-33.15,97.34-63.02l191.46,162.59
		c0,0,104.17-127.79,98.45-295.55c-7.87-231.04-184.62-339.1-184.62-339.1L741.69,451.24c-4.93-3.57-10.06-6.92-15.38-10.04
		c-38.24-22.37-82.18-30.19-125.33-22.65l-107.31-244.2c2.99-3.7,5.8-7.56,8.25-11.74c6.5-11.11,10.55-23.18,12.14-35.57
		c35.45-8.87,71.29-13.77,106.99-14.69c89.92-2.3,178.94,20.43,258.52,67.01c112.69,65.97,192.96,171.87,225.99,298.2
		c33.05,126.33,14.93,257.95-51.04,370.65c-37.62,64.27-88.26,117.94-148.24,158.37l83.52,35.16
		c52.27-42.42,97.09-94.25,132.11-154.08C1198.39,756.95,1219.42,604.29,1181.1,457.79z M420.05,163.36
		c-24.72,0.63-45.27-18.9-45.91-43.62c-0.63-24.72,18.9-45.27,43.62-45.9s45.27,18.9,45.91,43.62
		C464.3,142.17,444.77,162.73,420.05,163.36z M686.85,508.58c24.76,14.49,42.39,37.76,49.64,65.5
		c14.98,57.28-19.42,116.06-76.71,131.04c-27.73,7.28-56.65,3.28-81.41-11.21c-24.76-14.48-42.39-37.74-49.64-65.49
		c-14.98-57.28,19.44-116.06,76.71-131.05c8.16-2.13,16.41-3.3,24.63-3.51C649.81,493.36,669.37,498.36,686.85,508.58z"/>
</g>
</svg>
