<svg xmlns="http://www.w3.org/2000/svg" width="200" height="23.966" viewBox="0 0 200 23.966"><path d="M185.223,273.458a4.546,4.546,0,0,0-3.094,8.006l-.018-.015,7.861,6.879H11.16a4.55,4.55,0,0,0-3.4,1.456,4.756,4.756,0,0,0,0,6.181,4.55,4.55,0,0,0,3.4,1.456H202.077a4.546,4.546,0,0,0,2.993-7.966L188.116,274.62a4.547,4.547,0,0,0-2.892-1.163Zm-.1,3.029a1.5,1.5,0,0,1,.964.387l.016.015,16.97,14.849a1.514,1.514,0,0,1-1,2.653H11.16a1.333,1.333,0,0,1-1.141-.438,1.74,1.74,0,0,1,0-2.154,1.333,1.333,0,0,1,1.141-.438H194.008a1.515,1.515,0,0,0,1-2.655l-10.9-9.536-.016-.015a1.515,1.515,0,0,1,1.031-2.669Z" transform="translate(-6.615 -273.455)"/></svg>